<svg xmlns="http://www.w3.org/2000/svg" width="168" height="40" viewBox="0 0 168 40" fill="none">
  <rect width="40" height="40" rx="6" fill="#00B2E0"/>
  <path d="M14.6 29.4c-4.2 0-7.3-2.5-8.4-6.2l2.5-1.5c.9 3.1 3.4 5 6 5 2.9 0 4.7-1.5 4.7-3.9 0-2.3-1.9-3.2-5.2-4.3-3.5-1.2-6.8-2.5-6.8-7 0-4.3 3.2-7 7.6-7 3.6 0 6.4 1.9 7.8 5l-2.4 1.4c-1-2.3-2.9-3.7-5.4-3.7-2.6 0-4.8 1.5-4.8 4.1 0 2.6 1.8 3.5 4.8 4.5 4 1.4 7.2 2.8 7.2 6.8 0 4.1-3.1 6.9-7.7 6.9Z" fill="white"/>
  <text x="52" y="18" fill="#242424" font-family="Geologica, Arial, sans-serif" font-size="16" font-weight="700" letter-spacing="-0.7">SRG</text>
  <text x="52" y="30" fill="#667681" font-family="Geologica, Arial, sans-serif" font-size="9" font-weight="500" letter-spacing="0.2">ПЛАТФОРМА</text>
</svg>
